# xmcd
#
# Track frame offsets:
#	150
#	16307
#	24681
#	39073
#	55245
#	69184
#	82142
#	92903
#	107727
#	121037
#	138726
#	154777
#	170663
#	181126
#	192762
#	208876
#	224628
#
# Disc length: 3270 seconds
#
# Revision: 1
# Processed by: cddbd v1.5.2PL0 Copyright (c) Steve Scherf et al.
# Submitted via: audiograbber 1.83.01
#
DISCID=ee0cc411
DTITLE=Pere János - Herkulesfürdõi emlék
DYEAR=2008
DGENRE=nóta
TTITLE0=Herkulesfürdõi emlék
TTITLE1=A kislány kertjébe
TTITLE2=Távoli szerenád
TTITLE3=Nem ember az ember
TTITLE4=Néha úgy felsír a szívem
TTITLE5=Szégyellem a vallomásom
TTITLE6=Milaja
TTITLE7=Édes, kedves tekintete asszony
TTITLE8=A Duna felett dalol a szél
TTITLE9=Sosem volt, sosem lesz
TTITLE10=Csiribiribin
TTITLE11=Liliomszál
TTITLE12=Csillagos éjszaka
TTITLE13=A napsugárnál nincs szebb talán
TTITLE14=Húzzad cigány, csendesen
TTITLE15=Susgó szellõ viszi a nótám
TTITLE16=Csárdás
EXTD=1991-es LP kidás CD-én 2008-ban.\n Hungaroton kiadó
EXTT0=
EXTT1=
EXTT2=
EXTT3=
EXTT4=
EXTT5=
EXTT6=
EXTT7=
EXTT8=
EXTT9=
EXTT10=
EXTT11=
EXTT12=
EXTT13=
EXTT14=
EXTT15=
EXTT16=
PLAYORDER=
